<?xml version="1.0" encoding="utf-8"?>
<!-- Generator: Adobe Illustrator 25.0.0, SVG Export Plug-In . SVG Version: 6.00 Build 0)  -->
<svg version="1.1" id="Calque_1" xmlns="http://www.w3.org/2000/svg" xmlns:xlink="http://www.w3.org/1999/xlink" x="0px" y="0px"
	 viewBox="0 0 256 256" enable-background="new 0 0 256 256" xml:space="preserve">
<g>
	<path fill="#FFFFFF" d="M199.163,70.402c-7.852,7.05-15.708,14.096-23.557,21.15c-28.272,25.407-56.561,50.794-84.775,76.265
		c-2.429,2.193-4.538,2.714-7.77,1.668c-26.052-8.437-52.183-16.63-78.252-25.012c-1.756-0.565-3.213-2.06-4.808-3.123
		c1.383-1.304,2.555-3.021,4.179-3.852c60.179-30.79,120.403-61.493,180.615-92.219c21.682-11.064,43.328-22.198,65.055-33.172
		c1.769-0.893,4.036-0.8,6.071-1.165c-0.034,1.91,0.284,3.905-0.154,5.718c-14.851,61.513-29.775,123.008-44.681,184.507
		c-1.73,7.136-1.715,7.165-8.819,5.008c-28.483-8.65-56.962-17.315-85.442-25.975c-6.475-1.969-6.77-2.948-2.441-8.056
		c27.002-31.859,54.005-63.718,81.005-95.579c1.524-1.798,3.028-3.612,4.542-5.419C199.674,70.897,199.419,70.65,199.163,70.402z"/>
	<path fill="#FFFFFF" d="M111.467,218.27c0.002-7.313,0.1-14.628-0.038-21.938c-0.073-3.893,1.288-5.416,5.202-4.168
		c7.269,2.318,14.524,4.692,21.857,6.792c3.856,1.104,4.609,2.855,2.452,6.225c-7.875,12.307-15.616,24.7-23.568,36.957
		c-0.857,1.321-2.759,1.964-4.176,2.922c-0.577-1.617-1.612-3.222-1.653-4.853C111.363,232.898,111.465,225.583,111.467,218.27z"/>
</g>
</svg>
