<?xml version="1.0" encoding="utf-8"?>
<!-- Generator: Adobe Illustrator 25.0.1, SVG Export Plug-In . SVG Version: 6.00 Build 0)  -->
<svg version="1.1" id="Calque_1" xmlns="http://www.w3.org/2000/svg" xmlns:xlink="http://www.w3.org/1999/xlink" x="0px" y="0px"
	 viewBox="0 0 396.9 396.9" style="enable-background:new 0 0 396.9 396.9;" xml:space="preserve">
<style type="text/css">
	.st0{display:none;}
	.st1{display:inline;fill:#232424;}
	.st2{fill:#FFFFFF;}
</style>
<g id="FOND" class="st0">
	<rect x="-2069.2" y="-1076.6" class="st1" width="4535.4" height="2551.2"/>
</g>
<g>
	<path class="st2" d="M388.9,296.8c-4.9,50.4-41.6,86.1-92,92.1c-12.7,1.5-25.6,2.6-38.4,2.6c-48.4-0.1-96.8,0-145.1-1.3
		c-32.1-0.9-60.6-11.9-82-37.4C14.8,333,7.1,309.5,6.8,284.4c-0.8-57.4-1.4-114.9,0-172.3C8.4,50.4,50.8,8.1,112.6,6.5
		c57.1-1.4,114.4-1.4,171.5,0c62.2,1.5,104.1,43.9,106.3,106c1.1,28.7,0.2,57.4,0.2,86.1L388.9,296.8z M198.3,355.6
		c28.7,0,57.5,0.9,86.1-0.2c42.4-1.7,70-28,71.1-70.1c1.5-57.9,1.4-115.9,0-173.8c-1-41.9-28.2-69.1-70.1-70.1
		c-57.9-1.4-115.9-1.4-173.8,0c-41.6,1-68.8,28-69.9,69.5c-1.5,58.1-0.9,116.4-0.1,174.5c0.3,19.2,7,37,21.7,50.8
		c14,13.2,31.2,18.6,49.6,19.1C141.3,356.2,169.8,355.6,198.3,355.6z"/>
	<path class="st2" d="M298,198.6c-0.2,54.8-45.4,99.5-100,99.1c-54.8-0.4-99.4-45.6-98.9-100.2c0.5-54.5,45.2-98.9,99.6-98.8
		C253.5,98.9,298.3,143.9,298,198.6z M263.4,198.3c0-35.6-29.4-64.9-65-64.8c-35.3,0.1-64.4,29.1-64.6,64.4
		c-0.2,35.5,29,65.1,64.6,65.2C233.9,263.2,263.4,233.9,263.4,198.3z"/>
	<path class="st2" d="M301.5,118.2c-12.8-0.1-22.9-10.3-22.8-23.1c0-12.8,10.2-23,22.9-23.1c13-0.1,23.6,10.6,23.3,23.6
		C324.6,108.3,314.3,118.3,301.5,118.2z"/>
</g>
</svg>
