<?xml version="1.0" encoding="utf-8"?>
<!-- Generator: Adobe Illustrator 25.0.1, SVG Export Plug-In . SVG Version: 6.00 Build 0)  -->
<svg version="1.1" id="Calque_1" xmlns="http://www.w3.org/2000/svg" xmlns:xlink="http://www.w3.org/1999/xlink" x="0px" y="0px"
	 viewBox="0 0 396.9 396.9" style="enable-background:new 0 0 396.9 396.9;" xml:space="preserve">
<style type="text/css">
	.st0{display:none;}
	.st1{display:inline;fill:#232424;}
	.st2{fill:#FFFFFF;}
</style>
<g id="FOND" class="st0">
	<rect x="-2069.2" y="-1076.6" class="st1" width="4535.4" height="2551.2"/>
</g>
<path class="st2" d="M393.1,198.8c0,51.5,0,103.1,0,154.6c0,18.4-12.3,34.2-30,38.4c-3.2,0.8-6.5,1.1-9.8,1.1
	c-103.3,0.1-206.5,0.1-309.8,0c-22.4,0-39.7-17.3-39.7-39.5c0-103.3,0-206.6,0-309.9C3.8,21.4,21.1,4,43.2,4c103.5,0,207,0,310.4,0
	c22.1,0,39.4,17.4,39.4,39.5C393.1,95.3,393.1,147,393.1,198.8z M217.9,159.9c-19.6,0-38.9,0-58.1,0c0,58.3,0,116.2,0,174.4
	c19.4,0,38.7,0,58.2,0c0-1.5,0-2.8,0-4c0-32.1,0-64.2,0-96.3c0-6.2,1.2-11.9,4.4-17.3c6.6-11.3,21-16.8,33.4-12.7
	c12.6,4.2,20.5,15.4,20.5,29.5c0,32.3,0,64.6,0,96.9c0,1.3,0,2.7,0,4c19.7,0,38.9,0,58.2,0c0.1-1.1,0.1-1.9,0.1-2.8
	c0-35.7,0-71.4-0.1-107.1c0-4.5-0.3-9.2-1.3-13.6c-5.1-23-18.5-39.6-39.9-49.3c-28.2-12.9-56.2-2.8-73.2,18.4
	c-0.5,0.7-1.1,1.3-2.3,2.6C217.9,174.3,217.9,167.1,217.9,159.9z M120.4,334.3c0-58.4,0-116.4,0-174.5c-19.4,0-38.6,0-57.8,0
	c0,58.3,0,116.4,0,174.5C82,334.3,101.1,334.3,120.4,334.3z M126.4,91.6c0.1-19.2-15.8-35.2-35-35.2c-19.1,0-35.1,15.6-35,34.9
	c0.1,20,15.4,34.9,35,35.1C110.7,126.5,126.2,110.9,126.4,91.6z"/>
</svg>
